# xmcd CD database file
#
# Track frame offsets:
#	150
#	19857
#	38631
#	54352
#	74379
#	93549
#	113661
#	135501
#	151714
#	171453
#	175173
#	190656
#	208554
#	230011
#
# Disc length: 3200 seconds
#
# Revision: 0
# Processed by: cddbd v1.5.1PL0 Copyright (c) Steve Scherf et al.
# Submitted via: CDex 1.51
#
DISCID=b40c7e0e
DTITLE=Gerry Barnum - Harmony
DYEAR=2003
DGENRE=Blues
TTITLE0=Harmony
TTITLE1=Gotta Get Somewhere
TTITLE2=Easy Now
TTITLE3=Best
TTITLE4=FreeTime
TTITLE5=Joyride
TTITLE6=Love Inside
TTITLE7=Lucky
TTITLE8=Saving Grace
TTITLE9=Harpbeats
TTITLE10=You Gotta Mind
TTITLE11=Rise to Arms
TTITLE12=You Can Come Out Now
TTITLE13=SairanJehre
EXTD=YEAR: 2003
EXTT0=
EXTT1=
EXTT2=
EXTT3=
EXTT4=
EXTT5=
EXTT6=
EXTT7=
EXTT8=
EXTT9=
EXTT10=
EXTT11=
EXTT12=
EXTT13=
PLAYORDER=
